<?xml version="1.0" standalone="no"?>
<!DOCTYPE svg PUBLIC "-//W3C//DTD SVG 20010904//EN"
 "http://www.w3.org/TR/2001/REC-SVG-20010904/DTD/svg10.dtd">
<svg version="1.0" xmlns="http://www.w3.org/2000/svg"
 width="200.000000pt" height="200.000000pt" viewBox="0 0 200.000000 200.000000"
 preserveAspectRatio="xMidYMid meet">

<g transform="translate(0.000000,200.000000) scale(0.100000,-0.100000)"
fill="" stroke="none">
<path d="M1118 1885 c-2 -2 -43 -6 -93 -10 -49 -3 -91 -7 -92 -9 -13 -12 207
-27 310 -21 65 4 117 9 115 10 -2 2 -44 5 -95 8 -50 3 -95 7 -100 9 -16 10
-41 17 -45 13z"/>
<path d="M1300 1834 c-69 -8 -132 -15 -140 -16 -11 -2 -16 -21 -20 -67 l-5
-63 -353 -182 c-194 -101 -357 -187 -361 -192 -9 -10 2 -150 13 -161 3 -4 46
9 95 29 83 33 89 34 99 17 11 -17 13 -17 44 -1 l33 17 -39 3 c-38 3 -38 4 -33
39 9 55 34 66 67 31 22 -23 26 -38 10 -38 -5 0 -2 -13 8 -29 15 -28 15 -31 -1
-49 -22 -24 -22 -36 5 -91 l21 -44 -24 -46 c-13 -25 -28 -46 -34 -46 -18 0
-37 56 -43 133 l-7 77 -5 -65 c-3 -36 -2 -99 1 -140 4 -46 2 -77 -4 -81 -5 -4
-8 -21 -5 -38 4 -30 4 -31 -18 -16 -29 19 -34 19 -34 -1 0 -9 8 -23 17 -30 17
-13 17 -14 0 -8 -14 5 -17 0 -17 -32 0 -22 4 -54 10 -72 8 -29 7 -32 -5 -22
-8 7 -15 21 -15 31 0 11 -5 19 -10 19 -6 0 -24 10 -40 22 -16 12 -32 19 -35
16 -3 -3 -2 -29 2 -58 8 -54 9 -55 102 -127 51 -40 97 -70 102 -67 5 3 8 0 7
-8 -2 -7 6 -13 17 -13 11 -1 19 -6 18 -11 -1 -6 82 -76 185 -156 103 -80 205
-162 226 -182 22 -20 46 -36 52 -36 9 0 275 159 291 174 6 6 134 1568 130
1580 -8 20 -124 20 -307 0z m195 -404 c-11 -5 -29 -9 -40 -9 l-20 0 20 9 c11
5 29 9 40 9 l20 0 -20 -9z m-363 -192 c-3 -239 -10 -334 -25 -319 -6 6 -19 11
-29 11 -10 0 -18 5 -18 11 0 6 -8 9 -17 7 -10 -3 -34 3 -54 13 -22 11 -40 14
-49 9 -8 -5 -21 -5 -31 1 -14 7 -19 4 -24 -11 -3 -11 -11 -20 -16 -20 -6 0 -7
9 -2 23 24 65 -8 191 -59 231 l-31 24 23 40 c21 38 31 43 174 100 83 33 153
61 156 61 3 1 4 -81 2 -181z m394 135 c-10 -10 -19 5 -10 18 6 11 8 11 12 0 2
-7 1 -15 -2 -18z m-6 -23 c-8 -5 -24 -10 -35 -10 -17 0 -17 2 -5 10 8 5 24 10
35 10 17 0 17 -2 5 -10z m-795 -19 c-3 -6 -11 -11 -16 -11 -5 0 -4 6 3 14 14
16 24 13 13 -3z m605 -16 c0 -13 8 -15 38 -10 l37 5 -35 -16 c-23 -11 -36 -12
-38 -5 -2 6 -10 11 -17 11 -7 0 -15 7 -19 15 -4 10 1 15 14 15 11 0 20 -7 20
-15z m177 9 c-3 -3 -12 -4 -19 -1 -8 3 -5 6 6 6 11 1 17 -2 13 -5z m-907 -8
c0 -3 -4 -8 -10 -11 -5 -3 -10 -1 -10 4 0 6 5 11 10 11 6 0 10 -2 10 -4z m173
-53 c-11 -33 -16 -36 -26 -18 -7 12 -5 20 4 26 22 13 29 11 22 -8z m752 -13
c-3 -5 -11 -10 -16 -10 -6 0 -7 5 -4 10 3 6 11 10 16 10 6 0 7 -4 4 -10z m-36
-39 c10 -7 7 -9 -12 -8 -15 1 -27 5 -27 10 0 10 22 9 39 -2z m-99 -11 c0 -5
-5 -10 -11 -10 -5 0 -7 5 -4 10 3 6 8 10 11 10 2 0 4 -4 4 -10z m-614 -35 c7
-29 -13 -62 -29 -46 -11 11 0 71 14 71 5 0 11 -11 15 -25z m538 7 c3 -5 -10
-16 -29 -25 l-35 -17 0 25 c0 21 5 25 29 25 17 0 32 -4 35 -8z m56 -90 c0 -9
-100 -46 -106 -39 -3 3 79 40 104 46 1 1 2 -2 2 -7z m150 -102 c0 -5 -5 -10
-11 -10 -5 0 -7 5 -4 10 3 6 8 10 11 10 2 0 4 -4 4 -10z m-46 -169 c-35 -21
-74 -35 -74 -26 0 7 80 44 95 45 6 0 -4 -8 -21 -19z m-118 -26 c-23 -17 -36
-19 -36 -6 0 11 18 19 40 20 11 0 10 -3 -4 -14z m-729 -57 c-3 -8 -6 -5 -6 6
-1 11 2 17 5 13 3 -3 4 -12 1 -19z m-30 -30 c-3 -8 -6 -5 -6 6 -1 11 2 17 5
13 3 -3 4 -12 1 -19z m749 -27 c-18 -20 -116 -65 -116 -53 0 15 17 28 60 49
58 28 79 30 56 4z m116 12 c-6 -2 -10 -9 -6 -14 3 -5 1 -9 -5 -9 -5 0 -12 4
-15 9 -6 9 10 19 29 19 6 0 4 -2 -3 -5z m-848 -19 c3 -8 2 -12 -4 -9 -6 3 -10
10 -10 16 0 14 7 11 14 -7z m133 -31 c-3 -10 -5 -4 -5 12 0 17 2 24 5 18 2 -7
2 -21 0 -30z m670 15 c-3 -8 -6 -5 -6 6 -1 11 2 17 5 13 3 -3 4 -12 1 -19z
m-793 -24 c5 -14 4 -15 -9 -4 -17 14 -19 20 -6 20 5 0 12 -7 15 -16z m79 -40
c-2 -7 8 -21 23 -33 44 -35 18 -24 -36 15 -28 20 -49 39 -46 41 3 3 13 -3 23
-13 17 -17 18 -17 22 12 3 25 4 26 11 9 4 -11 5 -25 3 -31z m751 40 c24 -9 19
-22 -15 -39 -35 -19 -47 -15 -24 8 8 9 15 20 15 26 0 13 3 13 24 5z m-646 -39
c-3 -3 -9 2 -12 12 -6 14 -5 15 5 6 7 -7 10 -15 7 -18z m69 -47 c-3 -8 -6 -5
-6 6 -1 11 2 17 5 13 3 -3 4 -12 1 -19z m493 -109 c0 -5 -5 -9 -11 -9 -6 0 -9
-7 -5 -15 6 -18 -13 -65 -27 -65 -9 0 -1 85 9 102 6 9 34 -2 34 -13z"/>
<path d="M500 1821 c0 -11 31 -24 39 -16 3 3 -1 10 -9 15 -19 12 -30 12 -30 1z"/>
<path d="M563 1807 c2 -6 16 -12 33 -14 16 -2 43 -8 59 -13 17 -5 64 -14 105
-19 41 -6 90 -13 108 -17 20 -4 32 -3 32 4 0 16 -12 21 -61 26 -24 2 -55 7
-69 10 -14 3 -45 8 -70 11 -25 3 -67 9 -93 13 -32 6 -46 5 -44 -1z"/>
</g>
</svg>
