<?xml version="1.0" standalone="no"?>
<!DOCTYPE svg PUBLIC "-//W3C//DTD SVG 20010904//EN"
 "http://www.w3.org/TR/2001/REC-SVG-20010904/DTD/svg10.dtd">
<svg version="1.0" xmlns="http://www.w3.org/2000/svg"
 width="1000.000000pt" height="1000.000000pt" viewBox="0 0 1000.000000 1000.000000"
 preserveAspectRatio="xMidYMid meet">

<g transform="translate(0.000000,1000.000000) scale(0.100000,-0.100000)"
fill="" stroke="none">
<path d="M3680 8699 c-156 -9 -578 -34 -860 -50 -107 -6 -198 -14 -202 -18 -4
-4 -1 -83 7 -176 9 -94 24 -273 35 -400 11 -126 31 -360 45 -520 14 -159 32
-366 40 -460 8 -93 26 -303 40 -465 14 -162 30 -342 35 -400 6 -58 15 -163 20
-235 6 -71 12 -148 15 -170 3 -22 14 -148 25 -280 20 -236 61 -703 80 -920 5
-60 16 -191 25 -290 28 -331 45 -519 51 -592 6 -67 9 -74 43 -101 32 -26 492
-381 1196 -923 132 -102 339 -262 460 -355 487 -376 705 -544 815 -626 63 -47
142 -107 175 -132 33 -25 63 -46 67 -46 3 0 7 66 8 148 1 81 5 210 9 287 11
216 -1 505 -20 505 -5 0 -9 -9 -9 -20 0 -11 -5 -20 -11 -20 -7 0 -9 -14 -6
-38 2 -20 2 -29 0 -19 -4 14 -16 17 -84 17 l-79 0 0 40 c0 32 -4 40 -18 40
-18 0 -19 -17 -26 -274 -3 -150 -4 -281 0 -290 3 -9 1 -16 -5 -16 -14 0 -14
58 -1 595 5 226 12 536 15 690 3 154 10 480 15 725 6 245 14 663 20 930 5 267
14 692 20 945 5 253 14 685 20 960 6 275 15 680 20 900 6 220 10 441 10 490 0
50 4 96 9 103 5 9 54 18 147 27 77 8 184 19 239 25 55 6 165 17 245 25 646 63
705 70 665 77 -34 7 -640 69 -1200 123 -82 8 -215 22 -295 30 -315 34 -1640
165 -1652 164 -7 -1 -74 -6 -148 -10z m-40 -29 c13 -9 13 -10 0 -9 -8 0 -24 4
-35 9 l-20 9 20 0 c11 0 27 -4 35 -9z m20 -19 c42 -5 83 -13 92 -16 9 -4 19
-2 23 4 4 7 -4 11 -19 11 -14 0 -26 4 -26 9 0 9 49 6 100 -6 23 -6 23 -7 -10
-13 -32 -7 -31 -7 17 -9 28 0 63 -5 77 -11 14 -5 59 -12 99 -15 159 -11 256
-24 277 -37 10 -6 -6 -7 -45 -3 -33 3 -72 5 -87 5 -16 0 -28 3 -28 7 0 5 -40
9 -88 11 -48 1 -101 7 -117 12 -44 15 -144 15 -158 1 -9 -10 -3 -11 27 -5 22
4 37 3 33 -2 -3 -5 16 -10 41 -11 26 0 90 -8 142 -17 52 -9 115 -18 140 -20
106 -9 254 -26 258 -31 14 -13 -38 -16 -130 -5 -57 6 -125 14 -153 16 -27 3
-77 10 -110 15 -55 9 -82 13 -140 18 -17 1 -18 3 -5 11 13 8 12 10 -2 10 -10
0 -18 -5 -18 -11 0 -14 -109 -4 -124 11 -6 6 -15 10 -21 10 -5 0 -3 -5 5 -10
12 -8 9 -9 -10 -6 -67 13 -243 37 -304 41 -38 3 -74 9 -79 14 -5 5 -24 7 -43
4 -34 -6 -110 4 -101 13 3 3 60 8 128 11 68 3 125 7 127 8 6 6 155 -3 232 -14z
m37 13 c-3 -3 -12 -4 -19 -1 -8 3 -5 6 6 6 11 1 17 -2 13 -5z m200 -20 c-3 -3
-12 -4 -19 -1 -8 3 -5 6 6 6 11 1 17 -2 13 -5z m72 -10 c2 -2 -7 -4 -22 -4
-14 0 -29 5 -32 10 -6 10 42 4 54 -6z m141 -14 c12 -8 10 -10 -10 -9 -14 1
-36 5 -50 9 -23 7 -22 8 10 9 19 0 42 -4 50 -9z m158 -17 c-10 -2 -28 -2 -40
0 -13 2 -5 4 17 4 22 1 32 -1 23 -4z m55 -10 c-7 -2 -19 -2 -25 0 -7 3 -2 5
12 5 14 0 19 -2 13 -5z m120 -10 c-7 -2 -19 -2 -25 0 -7 3 -2 5 12 5 14 0 19
-2 13 -5z m-73 -19 c0 -2 -7 -4 -15 -4 -8 0 -15 4 -15 10 0 5 7 7 15 4 8 -4
15 -8 15 -10z m259 0 c10 -9 -86 -3 -99 6 -10 7 2 8 40 4 30 -4 57 -8 59 -10z
m-184 -12 c-3 -3 -11 0 -18 7 -9 10 -8 11 6 5 10 -3 15 -9 12 -12z m258 1 c-7
-2 -19 -2 -25 0 -7 3 -2 5 12 5 14 0 19 -2 13 -5z m-115 -10 c-10 -2 -26 -2
-35 0 -10 3 -2 5 17 5 19 0 27 -2 18 -5z m1043 -42 c30 -5 83 -12 119 -16 78
-7 111 -14 128 -28 7 -5 16 -7 19 -3 4 4 1 12 -7 17 -13 9 -12 10 1 6 10 -3
49 -9 88 -13 39 -3 71 -9 71 -13 0 -4 19 -7 43 -7 23 0 76 -3 117 -6 41 -4 81
-7 88 -7 7 -1 10 -6 6 -12 -5 -8 13 -9 62 -5 38 4 89 3 114 -2 l45 -9 -45 -6
c-25 -3 -112 -12 -195 -19 -140 -12 -164 -12 -350 9 -110 12 -323 36 -474 53
-151 16 -276 32 -278 34 -3 2 28 7 69 10 40 4 114 10 163 15 128 12 155 12
216 2z m-161 -76 c173 -19 362 -40 420 -46 148 -16 163 -25 55 -33 -49 -4
-126 -11 -170 -17 -101 -12 -188 -12 -273 1 -37 5 -166 21 -287 35 -377 45
-538 65 -543 69 -2 2 29 7 70 10 40 3 123 10 183 15 135 11 153 10 545 -34z
m-2259 -185 c5 0 9 -8 9 -17 0 -15 -2 -14 -15 3 -8 10 -14 30 -13 44 1 24 1
24 5 -2 2 -16 9 -28 14 -28z m16 18 c-3 -8 -6 -5 -6 6 -1 11 2 17 5 13 3 -3 4
-12 1 -19z m63 -22 c8 -11 10 -17 4 -13 -7 4 -14 -2 -17 -15 -9 -33 -15 -18
-10 20 3 18 6 32 7 30 1 -2 8 -12 16 -22z m130 0 c0 -2 -7 -6 -15 -10 -8 -3
-15 -1 -15 4 0 6 7 10 15 10 8 0 15 -2 15 -4z m61 -17 c2 6 15 8 27 4 17 -4
20 -8 11 -14 -8 -5 -17 -3 -21 4 -4 7 -10 2 -17 -15 -5 -14 -15 -29 -21 -33
-7 -4 -6 1 2 15 11 18 11 23 -4 34 -10 7 -18 17 -18 21 0 5 9 0 19 -9 11 -10
20 -13 22 -7z m94 -9 c3 -5 -1 -10 -9 -10 -23 0 -29 -18 -12 -35 13 -14 16
-12 28 12 7 14 20 28 28 30 10 3 9 1 -2 -7 -10 -6 -18 -17 -18 -24 0 -7 -9
-23 -20 -36 l-20 -23 0 21 c0 12 -4 22 -10 22 -14 0 -13 33 2 48 15 15 25 15
33 2z m-160 -39 c-6 -5 -25 10 -25 20 0 5 6 4 14 -3 8 -7 12 -15 11 -17z m285
19 c0 -5 -4 -10 -10 -10 -5 0 -10 5 -10 10 0 6 5 10 10 10 6 0 10 -4 10 -10z
m50 -4 c0 -3 -4 -8 -10 -11 -5 -3 -10 -1 -10 4 0 6 5 11 10 11 6 0 10 -2 10
-4z m115 -6 c3 -5 1 -10 -4 -10 -6 0 -11 5 -11 10 0 6 2 10 4 10 3 0 8 -4 11
-10z m-65 -4 c0 -2 -7 -6 -15 -10 -8 -3 -15 -1 -15 4 0 6 7 10 15 10 8 0 15
-2 15 -4z m7 -53 c-3 -10 -5 -4 -5 12 0 17 2 24 5 18 2 -7 2 -21 0 -30z m58
27 c-3 -5 1 -20 9 -33 15 -21 14 -23 -7 -24 -15 -2 -18 0 -8 6 8 5 10 14 6 21
-6 9 -10 9 -17 -1 -7 -11 -8 -9 -4 4 3 10 6 23 6 28 0 5 5 9 11 9 5 0 7 -4 4
-10z m-235 -6 c0 -8 -19 -13 -24 -6 -3 5 1 9 9 9 8 0 15 -2 15 -3z m328 -6 c9
-9 12 -9 12 0 0 7 5 12 10 12 7 0 7 -6 0 -19 -5 -11 -8 -26 -5 -33 4 -9 -4
-14 -25 -16 -23 -2 -30 2 -30 15 0 15 2 16 10 3 7 -11 12 -12 21 -3 16 16 3
47 -16 39 -8 -3 -15 -1 -15 4 0 14 24 12 38 -2z m72 -8 c0 -5 -7 -7 -15 -4 -8
4 -15 8 -15 10 0 2 7 4 15 4 8 0 15 -4 15 -10z m-270 -12 c0 -4 -4 -8 -9 -8
-6 0 -12 4 -15 8 -3 5 1 9 9 9 8 0 15 -4 15 -9z m324 4 c2 -4 -4 -8 -15 -8
-10 0 -19 4 -19 8 0 4 6 8 14 8 8 0 17 -4 20 -8z m133 -59 c-2 -16 -4 -5 -4
22 0 28 2 40 4 28 2 -13 2 -35 0 -50z m-33 49 c3 -5 -1 -9 -9 -9 -8 0 -15 4
-15 9 0 4 4 8 9 8 6 0 12 -4 15 -8z m101 -22 c3 -6 -1 -7 -9 -4 -18 7 -21 14
-7 14 6 0 13 -4 16 -10z m55 -4 c0 -2 -7 -6 -15 -10 -8 -3 -15 -1 -15 4 0 6 7
10 15 10 8 0 15 -2 15 -4z m-310 -16 c0 -5 -4 -10 -9 -10 -6 0 -13 5 -16 10
-3 6 1 10 9 10 9 0 16 -4 16 -10z m60 -2 c0 -14 -18 -17 -28 -5 -8 10 -6 13 9
13 10 0 19 -4 19 -8z m303 -7 c-7 -26 14 -36 22 -11 7 23 37 24 41 2 1 -7 0
-8 -3 -2 -8 17 -21 11 -35 -17 -7 -14 -20 -28 -28 -31 -13 -3 -13 -2 0 7 12 8
12 13 2 23 -14 14 -16 48 -3 48 5 0 7 -8 4 -19z m120 4 c4 -8 2 -17 -3 -20 -6
-4 -10 3 -10 14 0 25 6 27 13 6z m-23 -5 c0 -5 -4 -10 -10 -10 -5 0 -10 5 -10
10 0 6 5 10 10 10 6 0 10 -4 10 -10z m-350 -4 c0 -11 -19 -15 -25 -6 -3 5 1
10 9 10 9 0 16 -2 16 -4z m50 -17 c0 -4 -7 -6 -15 -3 -8 4 -15 10 -15 15 0 4
7 6 15 3 8 -4 15 -10 15 -15z m95 -17 c-3 -3 -11 0 -18 7 -9 10 -8 11 6 5 10
-3 15 -9 12 -12z m291 -36 c-2 -6 -5 -3 -5 7 -1 19 -21 24 -21 5 0 -6 -3 -9
-6 -6 -3 4 0 17 7 29 l12 23 9 -24 c5 -13 7 -28 4 -34z m24 44 c0 -5 -5 -10
-11 -10 -5 0 -7 5 -4 10 3 6 8 10 11 10 2 0 4 -4 4 -10z m44 2 c2 -4 -4 -8
-14 -8 -10 0 -16 4 -14 8 3 4 9 8 14 8 5 0 11 -4 14 -8z m46 -6 c0 -3 -4 -8
-10 -11 -5 -3 -10 -1 -10 4 0 6 5 11 10 11 6 0 10 -2 10 -4z m40 -4 c0 -5 -7
-9 -15 -9 -8 0 -12 4 -9 9 3 4 9 8 15 8 5 0 9 -4 9 -8z m-280 -26 c-7 -7 -13
-7 -20 0 -6 6 -3 10 10 10 13 0 16 -4 10 -10z m193 -20 c13 4 17 2 13 -5 -15
-24 -58 3 -55 36 0 4 5 -2 11 -15 8 -16 17 -21 31 -16z m103 11 c4 -4 -7 -7
-24 -7 -18 0 -32 5 -32 10 0 11 45 9 56 -3z m-11 -29 c5 4 5 2 1 -5 -8 -14
-36 -6 -36 9 0 7 5 6 13 -1 8 -6 18 -7 22 -3z m-335 -1784 c0 -4 -20 -28 -44
-54 -57 -61 -111 -169 -136 -271 -21 -90 -26 -100 -36 -74 -20 50 74 268 153
355 41 45 63 61 63 44z m-490 -70 c22 -9 38 -20 35 -24 -3 -4 13 -30 36 -56
43 -52 94 -142 85 -151 -3 -3 -35 7 -72 21 -36 15 -68 25 -71 23 -6 -7 57 -57
71 -57 7 0 20 -15 30 -32 9 -18 26 -49 37 -68 37 -65 8 -210 -41 -210 -11 0
-20 4 -20 8 0 5 -7 9 -15 9 -35 0 -6 -204 42 -302 14 -27 46 -75 72 -105 44
-52 46 -58 43 -109 -2 -40 -7 -54 -20 -58 -16 -4 -30 -29 -67 -118 -21 -51
-46 -99 -56 -105 -3 -3 -13 -27 -21 -55 -12 -45 -17 -50 -45 -53 -23 -2 -37 3
-50 18 -10 12 -28 33 -40 46 -13 14 -23 33 -23 43 0 9 -5 22 -12 29 -7 7 -9
12 -5 12 4 0 3 9 -3 20 -14 26 -36 131 -57 270 -19 127 -22 414 -5 483 19 73
72 115 158 124 47 5 54 9 54 28 0 19 -8 23 -67 33 -38 6 -92 14 -121 16 -29 3
-57 8 -62 11 -15 9 -12 115 4 169 20 66 58 119 97 139 43 21 59 21 109 1z
m306 -449 c26 -41 64 -153 64 -191 0 -28 -8 -43 -37 -70 -41 -39 -79 -52 -96
-35 -19 19 -14 206 7 269 20 58 37 65 62 27z m-656 -1395 c0 -16 -15 -12 -44
11 -15 12 -29 19 -32 17 -2 -3 -1 -26 2 -51 6 -39 12 -51 39 -67 18 -11 36
-27 39 -35 7 -20 -4 -18 -34 5 -14 11 -29 20 -33 20 -5 0 -5 -33 -1 -72 4 -52
3 -70 -4 -63 -6 6 -14 75 -18 159 l-7 149 46 -32 c26 -18 47 -36 47 -41z m54
-112 c3 -50 6 -112 6 -138 0 -44 3 -49 40 -74 22 -14 40 -31 40 -36 0 -15 -6
-13 -49 16 l-39 25 -6 87 c-4 48 -9 115 -12 150 -4 37 -2 62 3 62 6 0 13 -41
17 -92z m217 -48 c22 -12 52 -66 46 -83 -2 -7 -11 3 -21 21 -9 17 -23 32 -31
32 -27 0 -16 -46 30 -134 46 -89 57 -144 31 -165 -18 -15 -68 25 -86 69 -19
45 -6 47 17 3 23 -43 56 -52 61 -16 2 11 -17 62 -42 112 -42 84 -57 146 -39
164 8 9 11 9 34 -3z m149 -102 c27 -18 50 -39 50 -46 0 -10 -5 -10 -21 -2 -11
7 -23 10 -25 8 -2 -3 0 -64 4 -136 5 -88 4 -131 -3 -129 -6 2 -12 62 -15 141
-5 128 -7 139 -27 156 -21 16 -31 40 -18 40 3 0 28 -15 55 -32z m106 -203 c9
-144 10 -145 41 -177 28 -28 34 -30 49 -17 14 12 16 30 12 136 -5 136 5 167
16 46 13 -158 5 -223 -29 -223 -24 0 -72 48 -88 87 -17 44 -34 293 -20 293 5
0 14 -65 19 -145z m-563 64 c-8 -16 -17 -28 -19 -26 -7 6 18 57 27 57 4 0 1
-14 -8 -31z m27 -19 c0 -5 -2 -10 -4 -10 -3 0 -8 5 -11 10 -3 6 -1 10 4 10 6
0 11 -4 11 -10z m753 -52 c98 -67 138 -136 145 -251 4 -65 2 -81 -13 -97 -26
-28 -48 -25 -110 16 -53 36 -55 38 -55 83 0 25 -3 97 -7 159 -3 61 -3 112 1
112 5 0 22 -10 39 -22z m-548 -88 c3 -5 1 -10 -4 -10 -6 0 -11 5 -11 10 0 6 2
10 4 10 3 0 8 -4 11 -10z m35 -5 c0 -8 -4 -15 -10 -15 -5 0 -7 7 -4 15 4 8 8
15 10 15 2 0 4 -7 4 -15z m-217 -26 c4 -16 3 -18 -9 -8 -16 13 -19 29 -5 29 5
0 11 -9 14 -21z m37 -19 c0 -5 7 -10 15 -10 8 0 15 -4 15 -10 0 -13 -6 -13
-31 0 -20 11 -26 30 -9 30 6 0 10 -4 10 -10z m908 -166 c2 -114 0 -166 -7
-159 -14 13 -20 336 -6 332 6 -2 11 -72 13 -173z m-595 65 c-5 -5 -6 11 -3 34
4 41 5 41 8 8 2 -18 0 -37 -5 -42z m-233 41 c0 -5 -4 -10 -10 -10 -5 0 -10 5
-10 10 0 6 5 10 10 10 6 0 10 -4 10 -10z m30 -26 c0 -14 -12 -19 -23 -8 -9 9
4 35 14 28 5 -3 9 -12 9 -20z m281 9 c13 -17 12 -17 -5 -3 -16 13 -20 12 -32
-5 -11 -15 -14 -15 -14 -4 0 33 30 39 51 12z m700 -34 c15 -10 41 -41 59 -69
99 -155 70 -339 -46 -284 -78 37 -144 160 -144 267 0 59 3 71 26 93 28 29 57
27 105 -7z m-941 7 c0 -11 -19 -15 -25 -6 -3 5 1 10 9 10 9 0 16 -2 16 -4z
m40 -36 c0 -5 -4 -10 -10 -10 -5 0 -10 5 -10 10 0 6 5 10 10 10 6 0 10 -4 10
-10z m17 -22 c-3 -8 -6 -5 -6 6 -1 11 2 17 5 13 3 -3 4 -12 1 -19z m223 -4 c0
-8 -8 -14 -17 -14 -14 0 -15 2 -4 9 8 5 10 14 6 21 -5 9 -4 11 3 6 7 -4 12
-14 12 -22z m-480 6 c0 -5 -5 -10 -11 -10 -5 0 -7 5 -4 10 3 6 8 10 11 10 2 0
4 -4 4 -10z m305 -22 c6 -13 17 -22 23 -20 7 1 12 -3 12 -9 0 -6 6 -9 14 -6 9
3 21 -4 30 -19 17 -25 12 -31 -14 -14 -8 5 -10 10 -5 10 6 1 -4 7 -20 14 -39
17 -65 43 -65 63 0 19 8 12 25 -19z m-265 -2 c0 -3 -4 -8 -10 -11 -5 -3 -10
-1 -10 4 0 6 5 11 10 11 6 0 10 -2 10 -4z m605 -36 c3 -5 1 -10 -4 -10 -6 0
-11 5 -11 10 0 6 2 10 4 10 3 0 8 -4 11 -10z m-398 -20 c10 0 13 -6 9 -16 -5
-12 -2 -15 11 -10 14 6 15 4 6 -5 -13 -13 -37 -3 -28 12 4 5 -1 9 -9 9 -9 0
-16 8 -15 18 0 10 3 12 6 5 2 -7 12 -13 20 -13z m357 -15 c3 -8 1 -15 -4 -15
-6 0 -10 7 -10 15 0 8 2 15 4 15 2 0 6 -7 10 -15z m-284 -34 c0 -4 -7 -8 -15
-8 -8 0 -15 6 -15 13 0 8 6 11 15 8 8 -4 15 -9 15 -13z m449 -56 c15 -18 15
-19 -1 -6 -16 12 -18 11 -18 -6 0 -10 6 -25 13 -33 10 -12 9 -12 -5 -1 -13 10
-18 26 -17 60 1 25 4 37 6 26 3 -11 12 -29 22 -40z m-99 35 c0 -5 -5 -10 -11
-10 -5 0 -7 5 -4 10 3 6 8 10 11 10 2 0 4 -4 4 -10z m-313 -16 c-3 -3 -12 -4
-19 -1 -8 3 -5 6 6 6 11 1 17 -2 13 -5z m28 -14 c3 -5 1 -10 -4 -10 -6 0 -11
5 -11 10 0 6 2 10 4 10 3 0 8 -4 11 -10z m450 -10 c3 -6 -1 -7 -9 -4 -18 7
-21 14 -7 14 6 0 13 -4 16 -10z m-405 -26 c0 -8 -5 -14 -12 -14 -6 0 -8 3 -5
7 4 3 2 12 -5 20 -8 11 -7 12 6 7 9 -3 16 -12 16 -20z m387 -26 c-3 -7 -5 -2
-5 12 0 14 2 19 5 13 2 -7 2 -19 0 -25z m-347 -20 c0 -19 -2 -20 -10 -8 -13
19 -13 30 0 30 6 0 10 -10 10 -22z m447 -50 c-2 -13 -4 -3 -4 22 0 25 2 35 4
23 2 -13 2 -33 0 -45z m-420 30 c-3 -8 -6 -5 -6 6 -1 11 2 17 5 13 3 -3 4 -12
1 -19z m334 5 c13 -16 12 -17 -3 -4 -17 13 -22 21 -14 21 2 0 10 -8 17 -17z
m130 -46 c-4 -61 -11 -59 -11 3 0 29 3 50 7 46 4 -4 6 -26 4 -49z m-434 28 c0
-8 -4 -12 -9 -9 -4 3 -8 9 -8 15 0 5 4 9 8 9 5 0 9 -7 9 -15z m353 5 c0 -5 -8
-10 -17 -10 -15 0 -16 2 -3 10 19 12 20 12 20 0z m173 -78 c-21 -22 -26 -21
-17 2 3 9 12 16 20 16 11 0 10 -4 -3 -18z m-46 -24 c-3 -8 -6 -5 -6 6 -1 11 2
17 5 13 3 -3 4 -12 1 -19z m-112 -48 c16 -17 16 -20 3 -15 -9 4 -19 13 -22 21
-7 19 -2 18 19 -6z m230 -19 c-3 -6 -14 -11 -23 -11 -13 0 -13 2 4 14 21 15
30 14 19 -3z m-156 -43 c-1 -17 -3 -18 -6 -6 -3 11 -10 15 -20 11 -11 -4 -14
-2 -9 5 13 21 36 13 35 -10z m36 -28 c-3 -5 -12 -10 -18 -10 -7 0 -6 4 3 10
19 12 23 12 15 0z m225 -11 c0 -6 -4 -7 -10 -4 -5 3 -10 11 -10 16 0 6 5 7 10
4 6 -3 10 -11 10 -16z m-190 -14 c0 -9 -6 -12 -15 -9 -8 4 -12 10 -9 15 8 14
24 10 24 -6z m47 -37 c-3 -7 -5 -2 -5 12 0 14 2 19 5 13 2 -7 2 -19 0 -25z
m33 -2 c0 -2 -8 -10 -17 -17 -16 -13 -17 -12 -4 4 13 16 21 21 21 13z m30 -37
c0 -5 -4 -9 -10 -9 -5 0 -10 7 -10 16 0 8 5 12 10 9 6 -3 10 -10 10 -16z m30
-29 c0 -5 -5 -10 -11 -10 -5 0 -7 5 -4 10 3 6 8 10 11 10 2 0 4 -4 4 -10z m40
-14 c0 -2 -7 -7 -16 -10 -8 -3 -12 -2 -9 4 6 10 25 14 25 6z m817 -618 c-2
-13 -4 -5 -4 17 -1 22 1 32 4 23 2 -10 2 -28 0 -40z m210 10 c-3 -7 -5 -2 -5
12 0 14 2 19 5 13 2 -7 2 -19 0 -25z m-27 -24 c0 -13 -4 -24 -10 -24 -5 0 -10
14 -10 31 0 17 4 28 10 24 6 -3 10 -17 10 -31z m-235 -380 c0 -35 -3 -64 -7
-64 -5 0 -8 32 -8 72 0 39 3 68 7 64 4 -4 8 -36 8 -72z m70 -95 c11 -17 2 -18
-19 -3 -17 12 -17 14 -4 14 9 0 20 -5 23 -11z"/>
<path d="M3588 8633 c7 -3 16 -2 19 1 4 3 -2 6 -13 5 -11 0 -14 -3 -6 -6z"/>
<path d="M3668 8603 c6 -2 18 -2 25 0 6 3 1 5 -13 5 -14 0 -19 -2 -12 -5z"/>
<path d="M5598 8483 c6 -2 18 -2 25 0 6 3 1 5 -13 5 -14 0 -19 -2 -12 -5z"/>
<path d="M4280 3718 c0 -29 3 -90 6 -135 l7 -81 49 -27 c47 -26 50 -26 69 -9
28 25 26 114 -5 180 -20 44 -98 124 -120 124 -3 0 -6 -24 -6 -52z"/>
<path d="M4606 3508 c-67 -95 73 -346 161 -290 22 14 35 66 28 112 -21 136
-140 248 -189 178z"/>
<path d="M7286 7551 c-3 -5 -14 -7 -24 -5 -9 3 -96 -9 -192 -26 -96 -17 -194
-34 -217 -37 -24 -3 -40 -10 -37 -15 4 -5 -2 -9 -12 -8 -36 4 -39 -1 -40 -63
-1 -59 -21 -304 -31 -377 -2 -19 -7 -59 -10 -89 l-5 -54 38 7 c40 7 114 23
259 56 44 10 117 26 162 35 l82 18 6 51 c4 28 7 69 7 91 1 113 23 405 30 405
4 0 8 5 8 10 0 12 -17 13 -24 1z m-223 -68 c-7 -2 -21 -2 -30 0 -10 3 -4 5 12
5 17 0 24 -2 18 -5z m-60 -10 c-7 -2 -19 -2 -25 0 -7 3 -2 5 12 5 14 0 19 -2
13 -5z m-3 -47 c0 -2 -11 -6 -25 -8 -14 -3 -25 -1 -25 3 0 5 11 9 25 9 14 0
25 -2 25 -4z m60 -27 c0 -5 -7 -9 -15 -9 -8 0 -15 7 -15 15 0 9 6 12 15 9 8
-4 15 -10 15 -15z m-70 -9 c0 -5 -4 -10 -10 -10 -5 0 -10 5 -10 10 0 6 5 10
10 10 6 0 10 -4 10 -10z m90 -25 c0 -8 -2 -15 -4 -15 -2 0 -6 7 -10 15 -3 8
-1 15 4 15 6 0 10 -7 10 -15z m70 11 c0 -3 -4 -8 -10 -11 -5 -3 -10 -1 -10 4
0 6 5 11 10 11 6 0 10 -2 10 -4z m-71 -33 c16 4 33 2 36 -3 6 -10 -13 -14 -55
-11 -18 1 -21 -1 -11 -7 10 -7 10 -11 1 -17 -9 -6 -9 -9 1 -16 8 -5 17 -3 21
4 6 9 8 9 8 0 0 -18 -15 -24 -77 -28 -47 -4 -53 -3 -33 6 14 5 32 8 41 6 18
-5 37 35 20 41 -5 2 -6 12 -4 23 4 15 8 17 13 8 5 -7 19 -10 39 -6z m-83 -8
c13 -12 12 -15 -5 -25 -11 -5 -32 -10 -48 -9 l-28 1 33 14 c18 8 30 19 27 24
-9 15 5 12 21 -5z m128 -70 c-4 -8 -8 -15 -10 -15 -2 0 -4 7 -4 15 0 8 4 15
10 15 5 0 7 -7 4 -15z m-184 -5 c0 -5 -5 -10 -11 -10 -5 0 -7 5 -4 10 3 6 8
10 11 10 2 0 4 -4 4 -10z m163 -27 c-7 -2 -19 -2 -25 0 -7 3 -2 5 12 5 14 0
19 -2 13 -5z m-277 -100 c-10 -10 -19 5 -10 18 6 11 8 11 12 0 2 -7 1 -15 -2
-18z m34 17 c0 -5 -5 -10 -11 -10 -5 0 -7 5 -4 10 3 6 8 10 11 10 2 0 4 -4 4
-10z"/>
<path d="M6304 7373 l-41 -14 -7 -137 c-5 -116 -9 -371 -7 -408 1 -6 51 -28
112 -49 l110 -37 37 29 c26 22 39 41 44 69 8 44 38 457 38 522 l0 42 -122 -1
c-78 -1 -138 -7 -164 -16z m169 0 c-7 -2 -19 -2 -25 0 -7 3 -2 5 12 5 14 0 19
-2 13 -5z m60 0 c-7 -2 -19 -2 -25 0 -7 3 -2 5 12 5 14 0 19 -2 13 -5z m31
-72 c-7 -8 -35 9 -29 19 4 6 11 5 20 -3 7 -6 11 -14 9 -16z m-24 -66 c0 -8 -4
-15 -10 -15 -5 0 -10 7 -10 15 0 8 5 15 10 15 6 0 10 -7 10 -15z m20 -30 c0
-2 -10 -9 -22 -15 -22 -11 -22 -10 -4 4 21 17 26 19 26 11z m-180 -34 c14 -27
13 -41 -5 -41 -9 0 -12 -6 -9 -15 4 -8 10 -12 15 -9 13 8 11 -17 -7 -69 -9
-26 -20 -44 -26 -41 -9 6 -10 170 -1 187 7 13 22 7 33 -12z m170 -115 c0 -3
-4 -8 -10 -11 -5 -3 -10 -1 -10 4 0 6 5 11 10 11 6 0 10 -2 10 -4z m-10 -65
c0 -5 -7 -12 -16 -15 -24 -9 -28 -7 -14 9 14 17 30 20 30 6z m-23 -143 c-3 -8
-6 -5 -6 6 -1 11 2 17 5 13 3 -3 4 -12 1 -19z"/>
<path d="M7145 6873 c-229 -54 -306 -72 -337 -77 -36 -7 -38 -9 -38 -44 0 -23
3 -32 9 -24 4 7 55 24 112 38 57 14 141 34 185 44 103 25 114 25 114 0 0 -11
-7 -20 -16 -20 -14 0 -243 -53 -351 -81 -23 -6 -45 -9 -50 -6 -4 3 -10 -20
-11 -51 -2 -32 -9 -137 -16 -235 -6 -98 -9 -180 -6 -182 3 -2 53 10 110 26 58
16 151 41 207 56 121 33 105 -6 129 308 11 157 13 220 5 223 -6 2 -11 8 -11
13 0 6 5 7 10 4 6 -3 10 -1 10 4 0 11 -19 12 -55 4z m-218 -79 c-3 -3 -12 -4
-19 -1 -8 3 -5 6 6 6 11 1 17 -2 13 -5z m-77 -20 c-54 -17 -50 -16 -50 -5 0
10 29 18 70 19 16 0 9 -4 -20 -14z m297 -50 c-3 -3 -12 -4 -19 -1 -8 3 -5 6 6
6 11 1 17 -2 13 -5z m-40 -10 c-3 -3 -12 -4 -19 -1 -8 3 -5 6 6 6 11 1 17 -2
13 -5z m-89 -19 c-9 -9 -121 -36 -126 -30 -3 3 -1 5 4 5 5 1 32 7 59 15 55 15
71 18 63 10z m-168 -45 c-14 -4 -34 -8 -45 -8 l-20 -1 20 9 c11 5 31 8 45 8
l25 0 -25 -8z m296 -41 c-5 -35 -3 -56 6 -67 9 -11 10 -14 1 -8 -7 4 -23 1
-35 -6 -13 -6 -30 -11 -40 -10 -9 2 -19 -2 -23 -8 -3 -5 -19 -10 -35 -10 -16
0 -32 -5 -35 -11 -4 -6 -14 -8 -22 -5 -8 3 -24 1 -36 -6 -12 -7 -28 -11 -36
-9 -7 1 -11 -1 -8 -6 3 -4 -19 -9 -49 -10 -58 -2 -65 10 -12 21 18 3 79 18
136 33 l102 27 0 52 0 51 43 10 c23 6 44 11 46 12 2 0 1 -22 -3 -50z m13 -138
c-3 -100 -3 -101 -109 -131 -171 -49 -285 -79 -289 -74 -2 2 1 15 8 28 9 16
19 22 32 19 11 -3 25 0 32 6 8 6 16 8 19 6 3 -3 18 0 34 6 16 7 36 13 44 15
46 8 92 23 104 33 7 6 15 9 17 7 2 -2 16 -6 31 -10 23 -5 27 -2 37 26 6 17 11
53 11 79 0 39 3 47 15 43 11 -4 15 -20 14 -53z m-39 20 c0 -5 -3 -23 -6 -41
-5 -21 -9 -27 -15 -19 -6 10 -11 10 -22 1 -8 -7 -19 -12 -23 -11 -5 2 -29 -3
-54 -11 -25 -7 -66 -14 -92 -16 -26 -2 -57 -8 -68 -14 -13 -7 -26 -7 -37 -2
-14 9 -14 11 6 21 12 7 26 9 31 6 5 -3 11 -1 15 5 3 5 15 10 25 10 11 0 28 9
38 21 11 11 30 21 43 22 13 0 27 5 30 9 3 5 26 10 51 11 25 1 44 5 41 10 -2 4
5 7 16 7 12 0 21 -4 21 -9z m-340 -61 c0 -5 -5 -10 -11 -10 -5 0 -7 5 -4 10 3
6 8 10 11 10 2 0 4 -4 4 -10z"/>
<path d="M7070 6794 l-35 -14 34 5 c18 3 37 5 42 5 5 0 9 5 9 10 0 13 -7 12
-50 -6z"/>
<path d="M6540 6559 c-63 -16 -131 -33 -150 -39 -19 -5 -104 -26 -187 -46
-127 -30 -153 -40 -153 -54 0 -13 6 -17 20 -13 15 4 19 2 14 -10 -11 -30 5
-36 54 -21 26 9 56 17 67 19 43 8 65 14 75 20 12 8 13 35 1 35 -19 0 -71 -27
-64 -33 3 -4 3 -7 -1 -7 -4 0 -13 6 -20 13 -11 11 21 21 183 60 109 26 199 43
204 38 9 -9 -33 -26 -83 -35 -55 -9 -121 -29 -126 -37 -3 -5 1 -9 8 -9 9 0 9
-3 2 -8 -6 -4 -16 -17 -22 -28 -12 -22 -52 -40 -52 -23 0 5 -4 9 -10 9 -5 0
-9 -5 -7 -12 1 -6 -24 -19 -58 -28 -33 -9 -68 -20 -77 -24 -9 -4 -21 -5 -27
-2 -5 3 -11 2 -13 -2 -4 -11 -59 -25 -57 -15 3 16 -1 36 -6 31 -3 -2 -8 -76
-11 -164 -5 -135 -4 -157 7 -142 8 9 30 19 49 23 24 4 30 3 21 -3 -10 -7 1 -9
32 -7 27 2 57 11 71 22 25 20 92 21 80 2 -8 -14 11 -11 65 10 28 10 52 17 54
14 3 -2 28 6 57 17 29 11 55 18 59 15 7 -8 -19 -25 -39 -25 -8 0 -55 -13 -105
-29 -52 -16 -93 -24 -96 -19 -4 6 -23 5 -50 -3 -24 -6 -53 -13 -64 -15 -11 -2
-48 -11 -82 -20 -53 -14 -62 -20 -66 -42 -3 -15 -3 -30 -1 -34 2 -4 30 2 62
12 31 10 165 49 297 86 132 37 243 71 246 76 3 6 7 46 8 91 1 80 1 81 -15 53
-11 -19 -19 -25 -23 -17 -11 17 -57 -6 -66 -33 -7 -19 -8 -18 -14 9 -7 29 -7
29 -15 8 -7 -23 -26 -32 -26 -13 0 18 -51 -13 -65 -39 l-14 -26 -1 35 c-1 31
-2 33 -10 13 -10 -23 -30 -32 -30 -12 0 5 -4 7 -10 4 -14 -9 -13 -4 14 56 21
47 25 50 25 26 1 -48 21 -19 22 31 0 35 3 42 9 27 5 -11 9 -32 9 -47 1 -28 31
-42 31 -15 0 9 2 9 9 -1 7 -11 10 -10 15 3 3 9 6 25 6 36 0 30 20 22 21 -8 0
-25 1 -26 9 -8 5 11 9 33 9 49 2 50 16 20 20 -41 1 -16 31 -17 31 -2 0 5 4 8
9 5 5 -4 12 7 16 24 8 36 25 30 26 -8 1 -65 17 19 24 130 6 108 6 117 -12 121
-16 4 -16 5 0 6 9 0 17 6 17 11 0 12 8 14 -130 -21z m110 -30 c0 -5 -12 -9
-26 -9 -14 0 -23 4 -19 10 4 6 11 8 16 5 5 -4 9 -1 9 5 0 6 5 8 10 5 6 -3 10
-10 10 -16z m-15 -29 c3 -5 1 -10 -4 -10 -6 0 -11 5 -11 10 0 6 2 10 4 10 3 0
8 -4 11 -10z m5 -34 c0 -3 -4 -8 -10 -11 -5 -3 -10 -1 -10 4 0 6 5 11 10 11 6
0 10 -2 10 -4z m-180 -16 c0 -5 -4 -10 -10 -10 -5 0 -10 5 -10 10 0 6 5 10 10
10 6 0 10 -4 10 -10z m150 6 c0 -3 -4 -8 -10 -11 -5 -3 -10 -1 -10 4 0 6 5 11
10 11 6 0 10 -2 10 -4z m-180 -10 c0 -3 -4 -8 -10 -11 -5 -3 -10 -1 -10 4 0 6
5 11 10 11 6 0 10 -2 10 -4z m150 -6 c0 -5 -4 -10 -10 -10 -5 0 -10 5 -10 10
0 6 5 10 10 10 6 0 10 -4 10 -10z m-207 -127 l-5 -51 -70 -17 c-38 -10 -71
-15 -73 -13 -3 2 -2 28 2 56 6 51 7 52 47 63 23 5 52 14 66 18 34 12 39 4 33
-56z m242 -172 c-6 -5 -23 -12 -40 -16 l-30 -6 30 15 c35 17 53 20 40 7z
m-495 -146 c-42 -16 -68 -19 -54 -6 10 10 40 18 69 19 12 0 6 -5 -15 -13z"/>
<path d="M6311 6451 c-7 -5 -10 -14 -7 -20 8 -13 46 3 46 19 0 12 -20 13 -39
1z"/>
<path d="M6051 6364 c0 -11 3 -14 6 -6 3 7 2 16 -1 19 -3 4 -6 -2 -5 -13z"/>
<path d="M6990 6210 c-352 -101 -320 -89 -320 -122 0 -15 5 -28 10 -28 6 0 10
-9 10 -20 0 -11 -4 -20 -10 -20 -5 0 -10 -7 -10 -15 0 -8 5 -15 10 -15 16 0
12 -40 -5 -46 -19 -7 -20 -34 -2 -34 17 0 10 -56 -11 -87 -9 -14 -10 -23 -4
-23 6 0 17 10 23 22 8 14 14 18 17 10 2 -6 8 -10 13 -6 15 9 10 -56 -5 -72
-17 -16 -36 -19 -36 -4 0 6 -4 10 -10 10 -5 0 -10 -7 -10 -15 0 -8 5 -15 10
-15 6 0 10 -9 10 -20 0 -11 -4 -20 -10 -20 -5 0 -10 -7 -10 -15 0 -8 5 -15 10
-15 6 0 10 -13 10 -30 0 -16 3 -30 8 -30 4 0 115 35 247 78 l240 78 6 64 c4
36 12 126 18 200 6 74 14 161 17 193 3 31 2 57 -3 56 -4 0 -100 -27 -213 -59z
m142 -136 c9 -6 -17 -28 -59 -51 -17 -10 -22 -10 -26 0 -3 9 -8 8 -21 -3 -16
-13 -18 -12 -14 10 2 14 9 24 16 22 7 -1 15 4 18 11 5 14 68 22 86 11z m34
-69 c-25 -19 -36 -19 -36 0 0 10 10 15 28 15 26 -1 26 -1 8 -15z m-301 -55 c4
-6 15 -6 31 0 35 14 44 12 44 -6 0 -12 7 -14 30 -9 29 6 30 5 30 -29 0 -22 -5
-36 -12 -36 -7 0 -23 -3 -35 -6 -22 -6 -26 7 -10 34 23 36 -61 18 -94 -21 -19
-22 -19 -22 -34 -3 -15 20 -12 49 7 74 12 14 34 16 43 2z m-86 -242 c-2 -2
-19 -11 -36 -20 -32 -16 -33 -16 -33 2 0 14 8 20 33 22 30 3 46 1 36 -4z"/>
<path d="M6330 5901 l-295 -86 -1 -55 c-1 -32 0 -40 3 -18 4 31 8 38 35 43 18
4 40 2 53 -5 18 -9 27 -10 41 0 16 10 17 11 2 6 -10 -3 -18 -1 -18 4 0 5 -8
11 -17 13 -10 3 -2 5 18 6 23 1 39 -4 42 -13 5 -12 18 -10 79 9 40 12 88 26
106 30 30 6 32 5 32 -20 0 -16 -4 -24 -11 -19 -8 4 -8 1 -2 -12 5 -11 6 -39 2
-64 -5 -36 -6 -39 -8 -15 -2 17 -5 25 -7 18 -3 -7 -13 -9 -22 -6 -15 6 -16 5
-2 -12 14 -17 14 -18 -7 -7 -27 15 -46 15 -38 2 3 -5 -1 -10 -9 -10 -18 0 -26
-12 -32 -46 -4 -22 -2 -26 13 -21 10 3 40 13 66 21 l48 15 -3 -37 c-3 -36 -4
-37 -45 -40 -24 -2 -44 -9 -47 -18 -3 -7 -1 -14 4 -14 6 0 10 -5 10 -12 0 -9
-3 -9 -12 0 -17 17 -25 15 -31 -7 -6 -26 -75 -49 -89 -30 -7 11 -8 9 -4 -5 6
-16 2 -18 -26 -12 -20 3 -28 3 -20 -3 10 -6 -2 -13 -37 -25 -63 -20 -71 -20
-71 3 0 22 23 43 42 40 24 -5 66 11 72 27 3 8 0 22 -8 30 -11 11 -12 22 -4 50
11 43 9 47 -16 28 -11 -8 -14 -14 -8 -14 21 0 13 -16 -14 -29 -27 -12 -49 -6
-39 10 4 5 1 9 -4 9 -6 0 -12 -21 -12 -47 l-2 -48 -7 40 c-6 36 -7 32 -10 -30
-1 -38 -5 -126 -9 -195 -4 -69 -5 -128 -1 -132 3 -4 62 12 130 36 69 23 195
67 281 96 86 29 161 55 166 59 6 3 13 34 16 67 l6 62 -49 -19 c-50 -19 -79
-24 -67 -13 3 4 30 14 59 24 47 15 53 20 55 46 1 16 7 115 14 220 7 104 10
195 8 201 -2 6 -117 -23 -299 -76z m260 19 c0 -5 -4 -10 -10 -10 -5 0 -10 5
-10 10 0 6 5 10 10 10 6 0 10 -4 10 -10z m-43 -16 c-3 -3 -12 -4 -19 -1 -8 3
-5 6 6 6 11 1 17 -2 13 -5z m-52 -14 c-3 -5 -11 -10 -16 -10 -6 0 -7 5 -4 10
3 6 11 10 16 10 6 0 7 -4 4 -10z m124 -7 c-2 -33 -14 -58 -29 -62 -8 -2 -23
-6 -32 -8 -10 -3 -18 0 -18 6 0 6 12 14 26 17 14 4 22 10 17 15 -5 5 -25 3
-46 -3 -20 -6 -39 -9 -42 -6 -14 14 10 36 48 45 64 16 77 15 76 -4z m-224 -23
c-3 -5 -13 -10 -21 -10 -8 0 -12 5 -9 10 3 6 13 10 21 10 8 0 12 -4 9 -10z
m-55 -20 c-19 -13 -30 -13 -30 0 0 6 10 10 23 10 18 0 19 -2 7 -10z m-50 -9
c0 -11 -31 -24 -39 -16 -3 3 1 10 9 15 19 12 30 12 30 1z m-55 -21 c-3 -5 -13
-10 -21 -10 -8 0 -14 5 -14 10 0 6 9 10 21 10 11 0 17 -4 14 -10z m360 -10
c-3 -5 -12 -10 -18 -10 -7 0 -6 4 3 10 19 12 23 12 15 0z m-90 -35 c-16 -8
-39 -14 -50 -14 -13 0 -8 5 15 14 46 18 74 17 35 0z m-78 -72 c-3 -10 -5 -4
-5 12 0 17 2 24 5 18 2 -7 2 -21 0 -30z m-44 -140 c-7 -2 -19 -2 -25 0 -7 3
-2 5 12 5 14 0 19 -2 13 -5z m54 -72 c-10 -12 -7 -13 18 -8 23 6 26 5 13 -3
-18 -11 -68 -4 -68 9 0 13 11 20 30 18 15 -1 17 -4 7 -16z m107 -58 c-4 -21
-8 -39 -9 -41 -1 -1 -106 -38 -234 -82 l-231 -79 0 39 c0 28 4 40 14 40 8 0
16 -6 19 -12 2 -7 3 -5 2 4 -2 9 4 19 12 22 25 10 31 7 26 -15 -5 -19 -4 -20
16 -10 23 13 28 31 9 31 -21 1 85 40 107 40 19 -1 19 -1 3 -14 -26 -20 -22
-30 5 -11 12 8 22 21 22 28 0 6 9 13 19 15 14 3 17 0 13 -12 -4 -9 -2 -16 3
-16 5 0 10 10 12 22 4 28 55 44 61 19 3 -11 5 -9 6 7 1 24 16 30 24 10 3 -8 6
-6 6 4 1 11 17 22 49 31 26 8 48 15 50 16 2 1 0 -16 -4 -36z"/>
<path d="M6320 5790 c-14 -11 -23 -20 -20 -21 37 -7 40 -6 40 12 0 13 4 18 12
13 7 -4 8 -3 4 4 -9 15 -6 15 -36 -8z"/>
<path d="M6366 5765 c-3 -8 -1 -15 4 -15 6 0 10 7 10 15 0 8 -2 15 -4 15 -2 0
-6 -7 -10 -15z"/>
<path d="M6095 5760 c-3 -6 1 -7 9 -4 18 7 21 14 7 14 -6 0 -13 -4 -16 -10z"/>
<path d="M6225 5750 c-3 -5 -1 -10 4 -10 6 0 11 5 11 10 0 6 -2 10 -4 10 -3 0
-8 -4 -11 -10z"/>
<path d="M6179 5652 c-17 -20 -15 -82 4 -94 9 -6 9 -8 0 -8 -7 0 -13 -7 -13
-15 0 -19 9 -19 52 -1 34 14 35 17 37 75 2 63 -5 73 -39 51 -9 -5 -17 -5 -20
0 -3 5 -13 2 -21 -8z m14 -32 c-3 -11 -7 -20 -9 -20 -2 0 -4 9 -4 20 0 11 4
20 9 20 5 0 7 -9 4 -20z"/>
<path d="M6890 5586 c-196 -66 -246 -86 -249 -101 -3 -15 0 -17 10 -8 20 16
159 62 159 52 0 -4 -7 -15 -16 -24 -12 -12 -19 -13 -24 -5 -5 9 -9 9 -14 1 -4
-6 -18 -11 -32 -11 -35 0 -64 -17 -64 -38 0 -13 -2 -14 -9 -3 -10 16 -18 -47
-26 -224 -3 -66 -8 -133 -12 -149 -5 -26 -3 -28 16 -23 18 4 20 3 10 -9 -6 -7
-15 -11 -20 -8 -5 3 -9 -4 -9 -15 0 -12 6 -21 13 -21 6 0 66 20 132 45 66 25
163 62 215 81 52 20 107 40 122 45 30 12 29 6 47 234 23 269 23 265 9 264 -7
-1 -123 -38 -258 -83z m18 -38 c-3 -7 -11 -13 -19 -13 -8 -1 -13 -6 -12 -12 3
-16 -45 -23 -51 -7 -3 7 10 19 32 28 46 19 55 19 50 4z m-138 -458 c-24 -15
-36 -11 -14 4 10 8 21 12 24 10 2 -3 -2 -9 -10 -14z"/>
<path d="M6300 5184 c-146 -51 -268 -94 -273 -96 -11 -5 -16 -56 -22 -267 -5
-154 -4 -196 7 -203 11 -6 10 -10 -1 -17 -11 -7 -16 -36 -19 -100 l-4 -90 273
110 c150 60 276 113 280 117 4 4 9 66 13 137 3 72 11 198 16 280 12 184 12
225 3 224 -5 -1 -127 -43 -273 -95z m90 -19 c-19 -7 -42 -13 -50 -13 -8 0 1 6
20 13 19 7 42 13 50 13 8 0 -1 -6 -20 -13z m156 -50 c-4 -24 -16 -30 -16 -7 0
12 4 22 9 22 5 0 8 -7 7 -15z m-346 -15 c0 -15 -38 -32 -45 -20 -5 8 17 23 43
29 1 1 2 -3 2 -9z m210 -30 c-20 -13 -43 -13 -35 0 3 6 16 10 28 10 18 0 19
-2 7 -10z m-30 -34 c0 -9 -30 -14 -35 -6 -4 6 3 10 14 10 12 0 21 -2 21 -4z
m-120 -17 c0 -5 5 -7 10 -4 6 3 10 2 10 -3 0 -8 -87 -52 -103 -52 -3 0 -4 7 0
16 4 12 2 15 -8 12 -8 -3 -14 -9 -15 -14 -2 -26 -17 -64 -26 -64 -5 0 -6 5 -3
10 3 6 2 10 -2 10 -5 0 -14 -10 -22 -21 -12 -20 -11 -21 4 -15 15 5 16 4 5 -9
-11 -14 -14 -13 -26 2 -10 14 -13 14 -14 4 0 -8 -3 -11 -7 -8 -3 4 2 16 11 26
17 19 17 19 -6 14 -19 -4 -20 -3 -8 7 13 10 13 11 0 7 -9 -2 -14 -13 -12 -27
2 -12 -2 -27 -10 -31 -8 -6 -9 -9 -1 -9 13 0 12 -25 -2 -37 -4 -4 -5 -2 -1 5
4 6 3 12 -3 12 -5 0 -9 23 -8 52 l2 51 75 24 c41 12 84 27 95 32 46 22 65 25
65 10z m267 -221 c-3 -8 -6 -5 -6 6 -1 11 2 17 5 13 3 -3 4 -12 1 -19z m-37
-7 c0 -6 -4 -13 -10 -16 -5 -3 -10 1 -10 9 0 9 5 16 10 16 6 0 10 -4 10 -9z
m-44 -28 c-10 -10 -19 5 -10 18 6 11 8 11 12 0 2 -7 1 -15 -2 -18z m-46 -3 c0
-5 -5 -10 -11 -10 -5 0 -7 5 -4 10 3 6 8 10 11 10 2 0 4 -4 4 -10z m-105 -39
c3 -5 1 -12 -5 -16 -5 -3 -10 1 -10 9 0 18 6 21 15 7z m-115 -50 c0 -6 -4 -13
-10 -16 -5 -3 -10 1 -10 9 0 9 5 16 10 16 6 0 10 -4 10 -9z m-60 -21 c0 -5 -5
-10 -11 -10 -5 0 -7 5 -4 10 3 6 8 10 11 10 2 0 4 -4 4 -10z"/>
<path d="M7077 5089 c-9 -6 -45 -21 -80 -33 -261 -97 -374 -141 -384 -149 -15
-11 -18 -61 -3 -52 6 3 10 -5 10 -18 0 -14 -6 -27 -14 -30 -10 -4 -16 -46 -22
-174 -11 -211 -11 -208 1 -206 15 3 487 201 493 207 5 6 16 113 27 278 l7 98
-32 -17 c-27 -13 -34 -13 -41 -2 -7 11 -9 10 -9 -3 0 -10 -4 -18 -9 -18 -5 0
-8 11 -7 25 1 20 10 28 42 39 25 8 46 10 51 5 5 -5 9 6 10 26 1 36 -9 42 -40
24z m-122 -99 c-3 -5 -12 -10 -18 -10 -7 0 -6 4 3 10 19 12 23 12 15 0z m-45
-20 c-8 -5 -19 -10 -25 -10 -5 0 -3 5 5 10 8 5 20 10 25 10 6 0 3 -5 -5 -10z
m-55 -20 c-3 -5 -11 -10 -16 -10 -6 0 -7 5 -4 10 3 6 11 10 16 10 6 0 7 -4 4
-10z m-145 -30 c-8 -5 -22 -9 -30 -9 -10 0 -8 3 5 9 27 12 43 12 25 0z m65 0
c-3 -5 -14 -10 -23 -10 -15 0 -15 2 -2 10 20 13 33 13 25 0z m242 -12 c-3 -8
-6 -5 -6 6 -1 11 2 17 5 13 3 -3 4 -12 1 -19z m15 -28 c-18 -11 -40 -19 -50
-19 -16 1 -16 2 1 6 9 2 17 9 17 14 0 6 4 8 8 5 4 -2 14 -1 22 5 8 5 20 9 25
9 6 0 -5 -9 -23 -20z m-342 6 c0 -2 -7 -7 -16 -10 -8 -3 -12 -2 -9 4 6 10 25
14 25 6z m247 -42 c-16 -9 -31 -13 -34 -10 -3 3 5 10 18 15 37 15 47 12 16 -5z
m-83 -39 c-3 -8 -9 -14 -12 -13 -4 1 -24 -4 -44 -12 -26 -9 -34 -17 -25 -22 9
-6 9 -10 -2 -17 -8 -5 -15 -20 -16 -33 -2 -13 -8 -22 -15 -20 -11 2 -11 0 -1
-11 9 -12 8 -16 -6 -21 -14 -6 -15 -9 -4 -15 10 -6 10 -10 1 -16 -17 -10 -19
-5 -20 50 -2 92 -1 95 20 95 10 0 21 4 25 10 3 5 12 7 20 3 8 -3 15 -1 15 5 0
6 12 15 28 20 38 14 42 14 36 -3z m30 -22 c0 -16 -2 -34 -2 -40 -3 -18 -42
-16 -42 2 0 8 -4 15 -10 15 -5 0 -10 5 -10 11 0 6 6 9 14 6 7 -3 20 3 29 14
22 25 23 24 21 -8z m-204 -38 c0 -5 -55 -35 -65 -35 -3 0 -5 4 -5 9 0 4 15 13
33 19 17 5 33 10 35 11 1 1 2 -1 2 -4z m180 -36 c0 -4 -9 -9 -20 -12 -11 -3
-20 -12 -20 -21 0 -9 -3 -16 -8 -16 -4 0 -6 20 -4 45 l4 44 24 -17 c13 -9 24
-20 24 -23z m-70 -9 c0 -18 -5 -30 -13 -30 -8 0 -12 11 -11 28 3 34 2 32 14
32 6 0 10 -13 10 -30z m107 -2 c-3 -7 -5 -2 -5 12 0 14 2 19 5 13 2 -7 2 -19
0 -25z m-42 -18 c-3 -5 -12 -10 -18 -10 -7 0 -6 4 3 10 19 12 23 12 15 0z
m-210 -70 c-3 -5 -1 -10 6 -10 7 0 10 -3 6 -6 -9 -9 -28 6 -22 17 4 5 8 9 11
9 3 0 2 -4 -1 -10z"/>
<path d="M6730 4751 c0 -6 5 -13 10 -16 6 -3 10 1 10 9 0 9 -4 16 -10 16 -5 0
-10 -4 -10 -9z"/>
<path d="M6720 4720 c0 -5 5 -10 11 -10 5 0 7 5 4 10 -3 6 -8 10 -11 10 -2 0
-4 -4 -4 -10z"/>
<path d="M6860 4765 c0 -8 5 -15 10 -15 6 0 10 7 10 15 0 8 -4 15 -10 15 -5 0
-10 -7 -10 -15z"/>
<path d="M6820 4709 c0 -5 5 -7 10 -4 6 3 10 8 10 11 0 2 -4 4 -10 4 -5 0 -10
-5 -10 -11z"/>
<path d="M5690 4620 c0 -5 5 -10 10 -10 6 0 10 5 10 10 0 6 -4 10 -10 10 -5 0
-10 -4 -10 -10z"/>
<path d="M6825 4438 c-126 -54 -235 -105 -241 -113 -10 -14 -39 -443 -30 -452
5 -5 37 9 320 142 l151 71 12 109 c22 203 30 310 24 326 -5 13 -44 0 -236 -83z
m205 -3 c0 -21 -13 -31 -87 -69 -49 -24 -128 -59 -178 -79 -49 -19 -107 -43
-127 -51 l-38 -16 0 29 c0 28 6 32 138 89 160 71 274 119 285 121 4 1 7 -10 7
-24z m-10 -85 c0 -5 -4 -10 -10 -10 -5 0 -10 5 -10 10 0 6 5 10 10 10 6 0 10
-4 10 -10z m-55 -29 c-6 -10 -45 -22 -45 -14 0 3 8 12 17 19 18 13 37 9 28 -5z
m-55 -21 c0 -5 -4 -10 -10 -10 -5 0 -10 5 -10 10 0 6 5 10 10 10 6 0 10 -4 10
-10z m-52 -21 c-2 -6 -8 -11 -13 -11 -6 0 -16 -4 -23 -10 -7 -6 -15 -8 -18 -5
-9 8 6 28 16 22 5 -3 11 -1 15 5 8 13 28 13 23 -1z m-88 -39 c0 -5 -4 -10 -10
-10 -5 0 -10 5 -10 10 0 6 5 10 10 10 6 0 10 -4 10 -10z m-64 -37 c-10 -10
-19 5 -10 18 6 11 8 11 12 0 2 -7 1 -15 -2 -18z m135 -45 c-1 -5 -1 -16 -1
-26 0 -14 -9 -18 -40 -19 -37 -2 -39 0 -30 17 17 32 72 53 71 28z m29 -86 c0
-5 -18 -17 -39 -28 -22 -10 -37 -23 -34 -28 4 -5 1 -6 -5 -2 -6 4 -21 2 -32
-4 -12 -6 -26 -9 -33 -7 -7 3 22 21 63 41 83 40 80 39 80 28z"/>
<path d="M6995 4430 c-3 -5 -1 -10 4 -10 6 0 11 5 11 10 0 6 -2 10 -4 10 -3 0
-8 -4 -11 -10z"/>
<path d="M6506 4523 c-6 -7 -146 -65 -368 -155 -70 -28 -125 -54 -123 -58 3
-4 -3 -7 -13 -6 -18 1 -17 3 -12 -118 1 -16 -3 -41 -9 -55 -13 -33 -19 -281
-7 -281 5 0 45 16 90 36 148 66 441 197 442 198 1 0 5 55 8 121 4 66 9 138 12
160 4 30 2 36 -5 25 -8 -11 -11 -5 -11 28 0 26 4 41 10 37 6 -4 10 8 10 29 0
34 -11 52 -24 39z m-31 -56 c-31 -21 -346 -149 -352 -143 -6 5 11 13 212 97
142 59 175 70 140 46z m25 -144 c-1 -52 -15 -64 -120 -103 -19 -7 -39 -17 -44
-22 -23 -19 -36 -7 -36 33 0 31 3 40 14 36 8 -3 17 1 20 10 4 8 13 13 21 9 8
-3 15 -1 15 5 0 6 5 7 11 4 6 -4 17 1 24 11 8 11 15 16 15 12 0 -4 12 0 28 8
36 19 52 18 52 -3z m-430 -23 c-8 -5 -19 -10 -25 -10 -5 0 -3 5 5 10 8 5 20
10 25 10 6 0 3 -5 -5 -10z m142 -202 c-7 -7 -12 -8 -12 -2 0 14 12 26 19 19 2
-3 -1 -11 -7 -17z m-37 -8 c-3 -5 -11 -10 -16 -10 -6 0 -7 5 -4 10 3 6 11 10
16 10 6 0 7 -4 4 -10z m90 -10 c3 -5 1 -10 -4 -10 -6 0 -11 5 -11 10 0 6 2 10
4 10 3 0 8 -4 11 -10z m-149 -15 c-11 -8 -16 -15 -11 -15 4 0 0 -9 -10 -20
-22 -25 -37 -26 -33 -2 2 9 17 25 33 34 37 21 47 22 21 3z m121 -1 c-3 -3 -12
-4 -19 -1 -8 3 -5 6 6 6 11 1 17 -2 13 -5z"/>
<path d="M6230 3859 c-146 -66 -268 -124 -272 -128 -4 -3 -10 -43 -13 -86 -10
-154 -26 -608 -21 -612 2 -2 123 56 267 129 l264 133 7 40 c3 22 11 144 18
270 6 127 13 263 16 303 3 39 4 72 2 72 -2 0 -122 -54 -268 -121z m246 39 c-1
-35 -15 -56 -50 -74 -12 -6 -20 -15 -19 -21 1 -6 -9 -8 -24 -5 -22 4 -25 2
-20 -12 4 -10 1 -19 -8 -22 -8 -4 -12 -11 -8 -17 4 -6 0 -8 -10 -4 -11 4 -14
2 -10 -9 3 -8 -1 -14 -8 -14 -8 0 -27 -7 -43 -15 -35 -18 -49 -10 -21 12 19
15 19 15 -4 8 -29 -9 -71 -45 -52 -45 7 0 9 -4 6 -10 -3 -5 -20 -10 -36 -10
-20 0 -28 -4 -23 -12 4 -7 3 -8 -4 -4 -7 4 -12 4 -12 -1 0 -7 -48 -9 -67 -3
-5 1 -11 2 -15 1 -5 0 -8 5 -8 12 0 7 -11 24 -24 38 l-24 26 51 23 c90 39 102
45 107 50 8 9 304 140 316 140 6 0 11 -15 10 -32z m-499 -202 c-4 -9 -1 -13 6
-11 7 3 20 -6 29 -19 17 -23 17 -25 -3 -50 -28 -35 -49 -34 -49 3 0 17 5 33
11 37 8 5 8 8 0 14 -11 6 -5 40 6 40 3 0 3 -7 0 -14z"/>
<path d="M6305 3770 c-3 -5 -1 -10 4 -10 6 0 11 5 11 10 0 6 -2 10 -4 10 -3 0
-8 -4 -11 -10z"/>
<path d="M6095 3700 c-3 -5 -1 -10 4 -10 6 0 11 5 11 10 0 6 -2 10 -4 10 -3 0
-8 -4 -11 -10z"/>
<path d="M6130 3680 c-8 -5 -12 -11 -9 -14 3 -3 14 1 25 9 21 16 8 20 -16 5z"/>
<path d="M6870 3935 c-36 -18 -100 -48 -142 -67 -53 -22 -78 -38 -78 -50 0
-13 27 -4 136 48 75 35 142 64 150 64 8 0 14 9 14 20 0 25 -2 25 -80 -15z"/>
<path d="M6935 3910 c-4 -6 -14 -9 -22 -6 -8 3 -12 2 -9 -2 5 -9 -224 -122
-247 -122 -7 0 -14 -6 -14 -12 0 -7 -4 -66 -8 -130 -4 -65 -4 -118 -1 -118 17
0 66 32 61 40 -3 5 0 12 6 16 8 4 9 3 5 -4 -8 -13 3 -15 26 -7 9 4 12 20 9 56
-3 45 -4 48 -17 32 -8 -11 -13 -13 -14 -5 0 6 -7 12 -15 12 -8 0 -15 5 -15 11
0 5 6 7 13 3 9 -6 9 -4 -1 8 -10 13 -10 17 0 20 8 3 6 7 -5 11 -9 3 -17 2 -17
-3 0 -6 -4 -10 -10 -10 -15 0 -12 46 5 60 19 15 31 7 38 -27 4 -16 11 -35 17
-43 9 -13 11 -13 20 0 5 8 10 34 10 57 0 37 4 45 37 67 39 27 57 25 48 -5 -4
-11 -2 -19 4 -19 6 0 12 15 12 33 l1 32 7 -30 c9 -40 3 -65 -15 -58 -14 5 -15
3 -19 -93 -1 -22 -5 -46 -9 -52 -10 -16 -7 -15 42 8 22 11 44 20 48 20 6 0 -2
-99 -8 -105 -2 -1 -57 -30 -122 -63 -100 -51 -121 -58 -132 -47 -8 7 -11 21
-8 29 3 9 1 16 -5 16 -6 0 -11 -19 -11 -45 0 -25 3 -45 8 -44 4 0 70 33 147
73 l140 73 7 94 c4 52 12 137 17 189 10 94 9 111 -4 90z m-48 -102 c-3 -8 -6
-5 -6 6 -1 11 2 17 5 13 3 -3 4 -12 1 -19z m20 -10 c-3 -8 -6 -5 -6 6 -1 11 2
17 5 13 3 -3 4 -12 1 -19z m-51 -115 c-8 -33 -12 -40 -14 -24 -4 28 6 71 16
71 5 0 4 -21 -2 -47z m15 -26 c-10 -9 -11 -8 -5 6 3 10 9 15 12 12 3 -3 0 -11
-7 -18z m-208 -32 c-3 -8 0 -15 6 -15 6 0 11 -7 11 -15 0 -9 -6 -12 -15 -9 -9
4 -15 19 -15 36 0 16 4 27 10 23 5 -3 7 -12 3 -20z m53 0 c9 -23 -5 -37 -22
-21 -8 8 -14 19 -14 25 0 16 30 13 36 -4z"/>
<path d="M6775 3750 c4 -18 3 -30 -4 -30 -6 0 -10 -16 -9 -35 1 -24 5 -32 12
-26 6 5 15 9 20 8 5 -1 10 9 12 23 2 14 6 39 9 55 4 28 4 29 -10 11 -15 -19
-15 -19 -15 2 0 12 -5 22 -11 22 -7 0 -8 -11 -4 -30z"/>
<path d="M5583 3550 c0 -41 2 -58 4 -37 2 20 2 54 0 75 -2 20 -4 3 -4 -38z"/>
<path d="M5842 3110 c0 -19 2 -27 5 -17 2 9 2 25 0 35 -3 9 -5 1 -5 -18z"/>
<path d="M6557 2989 c-9 -5 -21 -8 -26 -4 -5 3 -11 -1 -14 -7 -4 -10 -7 -11
-18 0 -7 6 -24 12 -38 12 -24 -1 -25 -2 -8 -14 17 -13 17 -15 -5 -31 -21 -15
-21 -16 -3 -13 28 4 32 -35 6 -61 -29 -29 -29 -87 0 -96 12 -4 27 -1 38 9 9 8
-9 -37 -41 -101 -56 -111 -82 -153 -98 -153 -30 0 -42 180 -15 243 8 20 31 53
51 72 52 52 35 55 -19 3 -38 -36 -46 -51 -51 -93 -4 -27 -11 -70 -16 -95 -5
-25 -12 -85 -14 -135 -12 -234 84 -235 197 -3 30 62 67 145 82 183 15 39 36
79 46 91 13 14 21 42 25 90 5 61 3 72 -16 92 -23 24 -36 27 -63 11z m-28 -53
c14 -16 -4 -61 -33 -85 -14 -12 -16 -10 -16 10 0 27 21 89 31 89 4 0 12 -6 18
-14z m-79 -369 c-11 -25 -25 -49 -30 -52 -13 -8 -13 2 2 28 7 12 13 28 14 35
3 15 25 44 31 39 2 -2 -6 -25 -17 -50z m-66 -112 c-4 -8 -11 -15 -16 -15 -6 0
-5 6 2 15 7 8 14 15 16 15 2 0 1 -7 -2 -15z"/>
<path d="M5811 2654 c0 -11 3 -14 6 -6 3 7 2 16 -1 19 -3 4 -6 -2 -5 -13z"/>
<path d="M5813 2455 c0 -27 2 -38 4 -22 2 15 2 37 0 50 -2 12 -4 0 -4 -28z"/>
</g>
</svg>
